<svg width="368" height="62" viewBox="0 0 368 62" fill="none" xmlns="http://www.w3.org/2000/svg">
<path opacity="0.5" d="M0.154297 49.4681H12.4158C24.6773 49.4681 49.2004 49.4681 73.7234 53.5917C98.2465 57.7927 122.77 65.9237 147.293 59.7867C171.816 53.5336 196.339 33.0124 220.862 30.8828C245.385 28.7533 269.908 45.4025 294.431 48.442C318.954 51.5976 343.477 41.1434 355.739 36.0518L368 30.8828V12.2976H355.739C343.477 12.2976 318.954 12.2976 294.431 12.2976C269.908 12.2976 245.385 12.2976 220.862 12.2976C196.339 12.2976 171.816 12.2976 147.293 12.2976C122.77 12.2976 98.2465 12.2976 73.7234 12.2976C49.2004 12.2976 24.6773 12.2976 12.4158 12.2976H0.154297L0.154297 49.4681Z" fill="#7FB82D"/>
<path d="M0.154297 34.8712H12.4158C24.6773 34.8712 49.2004 34.8712 73.7234 38.7398C98.2465 42.681 122.77 50.309 147.293 44.5516C171.816 38.6853 196.339 19.4335 220.862 17.4356C245.385 15.4378 269.908 31.0572 294.431 33.9087C318.954 36.8691 343.477 27.0615 355.739 22.2849L368 17.4356V0L355.739 0C343.477 0 318.954 0 294.431 0C269.908 0 245.385 0 220.862 0C196.339 0 171.816 0 147.293 0C122.77 0 98.2465 0 73.7234 0C49.2004 0 24.6773 0 12.4158 0L0.154297 0L0.154297 34.8712Z" fill="#7FB82D"/>
</svg>
